<svg xmlns="http://www.w3.org/2000/svg" version="1.1" xmlns:xlink="http://www.w3.org/1999/xlink" xmlns:svgjs="http://svgjs.dev/svgjs" width="1500" height="935" viewBox="0 0 1500 935"><g transform="matrix(1,0,0,1,-0.9090909090909918,0.3785425101214628)"><svg viewBox="0 0 396 247" data-background-color="#ffffff" preserveAspectRatio="xMidYMid meet" height="935" width="1500" xmlns="http://www.w3.org/2000/svg" xmlns:xlink="http://www.w3.org/1999/xlink"><g id="tight-bounds" transform="matrix(1,0,0,1,0.2400000000000091,-0.09999999999999432)"><svg viewBox="0 0 395.52 247.2" height="247.2" width="395.52"><g><svg></svg></g><g><svg viewBox="0 0 395.52 247.2" height="247.2" width="395.52"><mask id="203232e4-7e58-4f1d-9e7e-f50a6574548f"><rect width="640" height="400" fill="white"></rect><g transform="matrix(1,0,0,1,137.49577060931898,37.08)"><svg viewBox="0 0 120.528458781362 173.04" height="173.04" width="120.528458781362"><g><svg viewBox="0 0 120.528458781362 173.04" height="173.04" width="120.528458781362"><g><svg viewBox="0 0 120.528458781362 173.04" height="173.04" width="120.528458781362"><g><svg viewBox="0 0 120.528458781362 173.04" height="173.04" width="120.528458781362"><g id="SvgjsG1256"><svg viewBox="0 0 120.528458781362 173.04" height="173.04" width="120.528458781362" id="SvgjsSvg1255"><g><svg viewBox="0 0 120.528458781362 173.04" height="173.04" width="120.528458781362"><g transform="matrix(1,0,0,1,0,0)"><svg width="120.528458781362" viewBox="0.20000000000000018 -38.85 30.150000000000002 42.85" height="173.04" data-palette-color="#ff5c0b"><path d="M10.65 0L4.2 0 4.2-34.85 13.55-34.85Q17.1-34.85 20-33.77 22.9-32.7 24.63-30.04 26.35-27.38 26.35-22.65L26.35-22.65Q26.35-19.23 25.05-16.19 23.75-13.15 20.96-11.25 18.18-9.35 13.75-9.35L13.75-9.35 10.65-9.35 10.65 0ZM13.15-29.8L13.15-29.8 10.65-29.8 10.65-14.6 13.3-14.6Q16.6-14.6 18.25-16.57 19.9-18.55 19.9-22.3L19.9-22.3Q19.9-26.13 18.4-27.96 16.9-29.8 13.15-29.8Z" opacity="1" transform="matrix(1,0,0,1,0,0)" fill="black" class="wordmark-text-0" id="SvgjsPath1254" stroke-width="7" stroke="black" stroke-linejoin="round"></path></svg></g></svg></g></svg></g></svg></g><g></g></svg></g></svg></g></svg></g></mask><g transform="matrix(1,0,0,1,137.49577060931898,37.08)"><svg viewBox="0 0 120.528458781362 173.04" height="173.04" width="120.528458781362"><g><svg viewBox="0 0 120.528458781362 173.04" height="173.04" width="120.528458781362"><g><svg viewBox="0 0 120.528458781362 173.04" height="173.04" width="120.528458781362"><g><svg viewBox="0 0 120.528458781362 173.04" height="173.04" width="120.528458781362"><g id="textblocktransform"><svg viewBox="0 0 120.528458781362 173.04" height="173.04" width="120.528458781362" id="textblock"><g><svg viewBox="0 0 120.528458781362 173.04" height="173.04" width="120.528458781362"><g transform="matrix(1,0,0,1,0,0)"><svg width="120.528458781362" viewBox="0.20000000000000018 -38.85 30.150000000000002 42.85" height="173.04" data-palette-color="#ff5c0b"><path d="M10.65 0L4.2 0 4.2-34.85 13.55-34.85Q17.1-34.85 20-33.77 22.9-32.7 24.63-30.04 26.35-27.38 26.35-22.65L26.35-22.65Q26.35-19.23 25.05-16.19 23.75-13.15 20.96-11.25 18.18-9.35 13.75-9.35L13.75-9.35 10.65-9.35 10.65 0ZM13.15-29.8L13.15-29.8 10.65-29.8 10.65-14.6 13.3-14.6Q16.6-14.6 18.25-16.57 19.9-18.55 19.9-22.3L19.9-22.3Q19.9-26.13 18.4-27.96 16.9-29.8 13.15-29.8Z" opacity="1" transform="matrix(1,0,0,1,0,0)" fill="#ff5c0b" class="wordmark-text-0" data-fill-palette-color="primary" id="text-0"></path></svg></g></svg></g></svg></g></svg></g><g></g></svg></g></svg></g></svg></g><g mask="url(#203232e4-7e58-4f1d-9e7e-f50a6574548f)"><g transform="matrix(3.269333333333333, 0, 0, 3.269333333333333, 68.62700701698878, 1.0000000000000142)"><svg xmlns="http://www.w3.org/2000/svg" xmlns:xlink="http://www.w3.org/1999/xlink" version="1.1" x="0" y="0" viewBox="10.999470850523316 12 78.99652914947669 75" enable-background="new 0 0 100 100" xml:space="preserve" height="75" width="78.99652914947669" class="icon-none" data-fill-palette-color="accent" id="none"><path d="M85.989 41H82.62L67.904 15.496C66.834 13.573 64.156 12 61.952 12H33.906c-2.203 0-4.881 1.573-5.951 3.496L11.814 43.504c-1.07 1.923-1.088 5.08-0.041 7.015l16.222 28.963C29.043 81.416 31.703 83 33.906 83h24.092c0 2.2 1.803 4 4.006 4h5.008c2.204 0 4.006-1.8 4.006-4v-5c0-0.969-0.363-1.849-0.943-2.543L82.166 54h3.823c2.204 0 4.007-1.8 4.007-4v-5C89.996 42.8 88.193 41 85.989 41zM33.906 80c-1.097 0-2.746-0.981-3.268-1.945L14.418 49.092c-0.557-1.026-0.545-3.111 0.023-4.131l16.141-28.008C31.12 15.985 32.798 15 33.906 15h28.046c1.109 0 2.786 0.985 3.325 1.953l14.099 24.39c-1.409 0.621-2.4 2.027-2.4 3.657v5c0 1.494 0.84 2.787 2.063 3.474L67.427 74.042C67.288 74.027 67.154 74 67.012 74h-5.008c-2.203 0-4.006 1.8-4.006 4v2H33.906zM68.014 83c0 0.542-0.459 1-1.002 1h-5.008c-0.543 0-1.001-0.458-1.001-1v-5c0-0.542 0.458-1 1.001-1h5.008c0.543 0 1.002 0.458 1.002 1V83zM86.99 50c0 0.542-0.458 1-1.001 1h-5.008c-0.543 0-1.001-0.458-1.001-1v-5c0-0.542 0.458-1 1.001-1h5.008c0.543 0 1.001 0.458 1.001 1V50z" fill="#ff5c0b" data-fill-palette-color="accent"></path></svg></g></g></svg></g><defs></defs></svg><rect width="395.52" height="247.2" fill="none" stroke="none" visibility="hidden"></rect></g></svg></g></svg>